<svg width="32" height="32" viewBox="-4 0 32 32" fill="none" xmlns="http://www.w3.org/2000/svg"><path d="M13.091 30.545a1.455 1.455 0 10-2.909 0 1.455 1.455 0 002.91 0z" fill="#000"/><path fill-rule="evenodd" clip-rule="evenodd" d="M21.285 18.141a11.388 11.388 0 001.988-6.505c0-3.213-1.136-5.956-3.408-8.228C17.592 1.136 14.85 0 11.636 0 8.423 0 5.68 1.136 3.408 3.408 1.136 5.68 0 8.423 0 11.636c0 2.371.663 4.54 1.988 6.505a11.41 11.41 0 003.291 3.253v.004a4.796 4.796 0 011.463 1.842 5.686 5.686 0 01.526 2.668 5.897 5.897 0 01-.014.234h.019v.04H16v-.51c0-.876.182-1.697.546-2.464a4.778 4.778 0 011.5-1.849 11.416 11.416 0 003.239-3.218z" fill="url(#paint0_radial_103_1531)"/><path d="M7.272 27.636a2.91 2.91 0 002.91 2.91h2.909A2.909 2.909 0 0016 27.636v-1.454H7.272v1.454z" fill="url(#paint1_radial_103_1531)"/><path d="M13.818 27.636H9.455a.727.727 0 100 1.455h4.363a.727.727 0 100-1.455z" fill="#000" fill-opacity=".2"/><path fill-rule="evenodd" clip-rule="evenodd" d="M8.55 8.55c.853-.851 1.881-1.277 3.086-1.277.402 0 .745-.142 1.029-.426.284-.284.426-.627.426-1.029 0-.401-.143-.744-.426-1.028a1.401 1.401 0 00-1.029-.426c-2.008 0-3.722.71-5.143 2.13-1.42 1.42-2.13 3.134-2.13 5.142 0 .402.142.745.426 1.029.284.284.627.426 1.029.426.401 0 .744-.142 1.028-.426.284-.284.426-.627.426-1.029 0-1.205.426-2.233 1.278-3.085z" fill="#fff"/><defs><radialGradient id="paint0_radial_103_1531" cx="0" cy="0" r="1" gradientUnits="userSpaceOnUse" gradientTransform="rotate(56.471 -2.83 10.812) scale(19.63 17.4489)"><stop stop-color="#FADF73"/><stop offset=".457" stop-color="#FFD500"/><stop offset="1" stop-color="#FC9900"/></radialGradient><radialGradient id="paint1_radial_103_1531" cx="0" cy="0" r="1" gradientUnits="userSpaceOnUse" gradientTransform="rotate(38.426 -33.407 18.765) scale(9.20221 18.4044)"><stop stop-color="#EFFCFF"/><stop offset="1" stop-color="#A5F2FF"/></radialGradient></defs></svg>